<mxfile>
    <diagram id="zRiZhJNBTAvJ8HZTbkJA" name="Page-1">
        <mxGraphModel dx="574" dy="790" grid="1" gridSize="10" guides="1" tooltips="1" connect="1" arrows="1" fold="1" page="1" pageScale="1" pageWidth="1169" pageHeight="827" background="#283618" math="0" shadow="0">
            <root>
                <mxCell id="0"/>
                <mxCell id="1" parent="0"/>
                <mxCell id="14" value="BinaryWriter" style="swimlane;fontStyle=0;childLayout=stackLayout;horizontal=1;startSize=26;fillColor=none;horizontalStack=0;resizeParent=1;resizeParentMax=0;resizeLast=0;collapsible=1;marginBottom=0;strokeColor=#DDA15E;fontColor=#FEFAE0;fontFamily=Lucida Console;align=center;rounded=1;" parent="1" vertex="1">
                    <mxGeometry x="390" y="10" width="180" height="140" as="geometry"/>
                </mxCell>
                <mxCell id="15" value="- filename" style="text;strokeColor=none;fillColor=none;align=left;verticalAlign=top;spacingLeft=4;spacingRight=4;overflow=hidden;rotatable=0;points=[[0,0.5],[1,0.5]];portConstraint=eastwest;fontColor=#FEFAE0;fontFamily=Lucida Console;rounded=1;" parent="14" vertex="1">
                    <mxGeometry y="26" width="180" height="26" as="geometry"/>
                </mxCell>
                <mxCell id="29" value="" style="line;strokeWidth=2;html=1;shadow=0;glass=0;sketch=0;fontFamily=Comic Sans MS;fontColor=#FEFAE0;fillColor=none;align=center;strokeColor=#DDA15E;rounded=1;labelBackgroundColor=#283618;" parent="14" vertex="1">
                    <mxGeometry y="52" width="180" height="10" as="geometry"/>
                </mxCell>
                <mxCell id="16" value="+ get()" style="text;strokeColor=none;fillColor=none;align=left;verticalAlign=top;spacingLeft=4;spacingRight=4;overflow=hidden;rotatable=0;points=[[0,0.5],[1,0.5]];portConstraint=eastwest;fontColor=#FEFAE0;fontFamily=Lucida Console;rounded=1;" parent="14" vertex="1">
                    <mxGeometry y="62" width="180" height="26" as="geometry"/>
                </mxCell>
                <mxCell id="17" value="+ write()" style="text;strokeColor=none;fillColor=none;align=left;verticalAlign=top;spacingLeft=4;spacingRight=4;overflow=hidden;rotatable=0;points=[[0,0.5],[1,0.5]];portConstraint=eastwest;fontColor=#FEFAE0;fontFamily=Lucida Console;rounded=1;" parent="14" vertex="1">
                    <mxGeometry y="88" width="180" height="26" as="geometry"/>
                </mxCell>
                <mxCell id="22" value="- intToByte()" style="text;strokeColor=none;fillColor=none;align=left;verticalAlign=top;spacingLeft=4;spacingRight=4;overflow=hidden;rotatable=0;points=[[0,0.5],[1,0.5]];portConstraint=eastwest;fontColor=#FEFAE0;fontFamily=Lucida Console;rounded=1;" parent="14" vertex="1">
                    <mxGeometry y="114" width="180" height="26" as="geometry"/>
                </mxCell>
                <mxCell id="144" style="edgeStyle=orthogonalEdgeStyle;orthogonalLoop=1;jettySize=auto;html=1;entryX=0.5;entryY=1;entryDx=0;entryDy=0;strokeColor=#DDA15E;fontColor=#FEFAE0;labelBackgroundColor=#283618;" parent="1" source="80" target="107" edge="1">
                    <mxGeometry relative="1" as="geometry"/>
                </mxCell>
                <mxCell id="151" style="edgeStyle=orthogonalEdgeStyle;curved=0;rounded=1;sketch=0;orthogonalLoop=1;jettySize=auto;html=1;entryX=0.5;entryY=1;entryDx=0;entryDy=0;fontColor=#FEFAE0;strokeColor=#DDA15E;fillColor=#BC6C25;" edge="1" parent="1" source="80" target="150">
                    <mxGeometry relative="1" as="geometry"/>
                </mxCell>
                <mxCell id="80" value="Person" style="swimlane;fontStyle=0;childLayout=stackLayout;horizontal=1;startSize=26;fillColor=none;horizontalStack=0;resizeParent=1;resizeParentMax=0;resizeLast=0;collapsible=1;marginBottom=0;strokeColor=#DDA15E;fontColor=#FEFAE0;fontFamily=Lucida Console;align=center;rounded=1;" parent="1" vertex="1">
                    <mxGeometry x="690" y="80" width="180" height="130" as="geometry"/>
                </mxCell>
                <mxCell id="81" value="- serialVersionUID" style="text;strokeColor=none;fillColor=none;align=left;verticalAlign=top;spacingLeft=4;spacingRight=4;overflow=hidden;rotatable=0;points=[[0,0.5],[1,0.5]];portConstraint=eastwest;fontColor=#FEFAE0;fontFamily=Lucida Console;rounded=1;" parent="80" vertex="1">
                    <mxGeometry y="26" width="180" height="26" as="geometry"/>
                </mxCell>
                <mxCell id="82" value="- name" style="text;strokeColor=none;fillColor=none;align=left;verticalAlign=top;spacingLeft=4;spacingRight=4;overflow=hidden;rotatable=0;points=[[0,0.5],[1,0.5]];portConstraint=eastwest;fontColor=#FEFAE0;fontFamily=Lucida Console;rounded=1;" parent="80" vertex="1">
                    <mxGeometry y="52" width="180" height="26" as="geometry"/>
                </mxCell>
                <mxCell id="83" value="- hiScore" style="text;strokeColor=none;fillColor=none;align=left;verticalAlign=top;spacingLeft=4;spacingRight=4;overflow=hidden;rotatable=0;points=[[0,0.5],[1,0.5]];portConstraint=eastwest;fontColor=#FEFAE0;fontFamily=Lucida Console;rounded=1;" parent="80" vertex="1">
                    <mxGeometry y="78" width="180" height="26" as="geometry"/>
                </mxCell>
                <mxCell id="84" value="- totalGames" style="text;strokeColor=none;fillColor=none;align=left;verticalAlign=top;spacingLeft=4;spacingRight=4;overflow=hidden;rotatable=0;points=[[0,0.5],[1,0.5]];portConstraint=eastwest;fontColor=#FEFAE0;fontFamily=Lucida Console;rounded=1;" parent="80" vertex="1">
                    <mxGeometry y="104" width="180" height="26" as="geometry"/>
                </mxCell>
                <mxCell id="107" value="java.io.Serializable" style="swimlane;fontStyle=0;childLayout=stackLayout;horizontal=1;startSize=30;fillColor=none;horizontalStack=0;resizeParent=1;resizeParentMax=0;resizeLast=0;collapsible=1;marginBottom=0;strokeColor=#DDA15E;fontColor=#FEFAE0;fontFamily=Lucida Console;align=center;arcSize=0;rounded=1;" parent="1" vertex="1">
                    <mxGeometry x="790" y="10" width="180" height="30" as="geometry"/>
                </mxCell>
                <mxCell id="108" value="&lt;&lt;interface&gt;&gt;&#10;PersonDao" style="swimlane;fontStyle=0;childLayout=stackLayout;horizontal=1;startSize=40;fillColor=none;horizontalStack=0;resizeParent=1;resizeParentMax=0;resizeLast=0;collapsible=1;marginBottom=0;strokeColor=#DDA15E;fontColor=#FEFAE0;fontFamily=Lucida Console;align=center;rounded=1;" parent="1" vertex="1">
                    <mxGeometry x="980" y="10" width="180" height="118" as="geometry"/>
                </mxCell>
                <mxCell id="109" value="+ add()" style="text;strokeColor=none;fillColor=none;align=left;verticalAlign=top;spacingLeft=4;spacingRight=4;overflow=hidden;rotatable=0;points=[[0,0.5],[1,0.5]];portConstraint=eastwest;fontColor=#FEFAE0;fontFamily=Lucida Console;rounded=1;" parent="108" vertex="1">
                    <mxGeometry y="40" width="180" height="26" as="geometry"/>
                </mxCell>
                <mxCell id="110" value="+ all()" style="text;strokeColor=none;fillColor=none;align=left;verticalAlign=top;spacingLeft=4;spacingRight=4;overflow=hidden;rotatable=0;points=[[0,0.5],[1,0.5]];portConstraint=eastwest;fontColor=#FEFAE0;fontFamily=Lucida Console;rounded=1;" parent="108" vertex="1">
                    <mxGeometry y="66" width="180" height="26" as="geometry"/>
                </mxCell>
                <mxCell id="117" value="+ update()" style="text;strokeColor=none;fillColor=none;align=left;verticalAlign=top;spacingLeft=4;spacingRight=4;overflow=hidden;rotatable=0;points=[[0,0.5],[1,0.5]];portConstraint=eastwest;fontColor=#FEFAE0;fontFamily=Lucida Console;rounded=1;" parent="108" vertex="1">
                    <mxGeometry y="92" width="180" height="26" as="geometry"/>
                </mxCell>
                <mxCell id="163" style="edgeStyle=orthogonalEdgeStyle;curved=0;rounded=1;sketch=0;orthogonalLoop=1;jettySize=auto;html=1;fontColor=#FEFAE0;strokeColor=#DDA15E;fillColor=#BC6C25;" edge="1" parent="1" source="133" target="108">
                    <mxGeometry relative="1" as="geometry"/>
                </mxCell>
                <mxCell id="133" value="SerializedPersonDao" style="swimlane;fontStyle=0;childLayout=stackLayout;horizontal=1;startSize=26;fillColor=none;horizontalStack=0;resizeParent=1;resizeParentMax=0;resizeLast=0;collapsible=1;marginBottom=0;strokeColor=#DDA15E;fontColor=#FEFAE0;fontFamily=Lucida Console;align=center;rounded=1;" parent="1" vertex="1">
                    <mxGeometry x="980" y="160" width="180" height="52" as="geometry"/>
                </mxCell>
                <mxCell id="134" value="- filename" style="text;strokeColor=none;fillColor=none;align=left;verticalAlign=top;spacingLeft=4;spacingRight=4;overflow=hidden;rotatable=0;points=[[0,0.5],[1,0.5]];portConstraint=eastwest;fontColor=#FEFAE0;fontFamily=Lucida Console;rounded=1;" parent="133" vertex="1">
                    <mxGeometry y="26" width="180" height="26" as="geometry"/>
                </mxCell>
                <mxCell id="150" value="Comparable&lt;Person&gt;" style="swimlane;fontStyle=0;childLayout=stackLayout;horizontal=1;startSize=30;fillColor=none;horizontalStack=0;resizeParent=1;resizeParentMax=0;resizeLast=0;collapsible=1;marginBottom=0;strokeColor=#DDA15E;fontColor=#FEFAE0;fontFamily=Lucida Console;align=center;arcSize=0;rounded=1;" vertex="1" parent="1">
                    <mxGeometry x="590" y="10" width="180" height="30" as="geometry"/>
                </mxCell>
                <mxCell id="152" value="MapSerializer" style="swimlane;fontStyle=0;childLayout=stackLayout;horizontal=1;startSize=26;fillColor=none;horizontalStack=0;resizeParent=1;resizeParentMax=0;resizeLast=0;collapsible=1;marginBottom=0;strokeColor=#DDA15E;fontColor=#FEFAE0;fontFamily=Lucida Console;align=center;rounded=1;" vertex="1" parent="1">
                    <mxGeometry x="180" y="10" width="180" height="140" as="geometry"/>
                </mxCell>
                <mxCell id="153" value="- filename" style="text;strokeColor=none;fillColor=none;align=left;verticalAlign=top;spacingLeft=4;spacingRight=4;overflow=hidden;rotatable=0;points=[[0,0.5],[1,0.5]];portConstraint=eastwest;fontColor=#FEFAE0;fontFamily=Lucida Console;rounded=1;" vertex="1" parent="152">
                    <mxGeometry y="26" width="180" height="26" as="geometry"/>
                </mxCell>
                <mxCell id="157" value="" style="line;strokeWidth=2;html=1;shadow=0;glass=0;sketch=0;fontFamily=Comic Sans MS;fontColor=#FEFAE0;fillColor=none;align=center;strokeColor=#DDA15E;rounded=1;labelBackgroundColor=#283618;" vertex="1" parent="152">
                    <mxGeometry y="52" width="180" height="10" as="geometry"/>
                </mxCell>
                <mxCell id="154" value="+ load()" style="text;strokeColor=none;fillColor=none;align=left;verticalAlign=top;spacingLeft=4;spacingRight=4;overflow=hidden;rotatable=0;points=[[0,0.5],[1,0.5]];portConstraint=eastwest;fontColor=#FEFAE0;fontFamily=Lucida Console;rounded=1;" vertex="1" parent="152">
                    <mxGeometry y="62" width="180" height="26" as="geometry"/>
                </mxCell>
                <mxCell id="155" value="+ export()" style="text;strokeColor=none;fillColor=none;align=left;verticalAlign=top;spacingLeft=4;spacingRight=4;overflow=hidden;rotatable=0;points=[[0,0.5],[1,0.5]];portConstraint=eastwest;fontColor=#FEFAE0;fontFamily=Lucida Console;rounded=1;" vertex="1" parent="152">
                    <mxGeometry y="88" width="180" height="26" as="geometry"/>
                </mxCell>
                <mxCell id="156" value="- intToByte()" style="text;strokeColor=none;fillColor=none;align=left;verticalAlign=top;spacingLeft=4;spacingRight=4;overflow=hidden;rotatable=0;points=[[0,0.5],[1,0.5]];portConstraint=eastwest;fontColor=#FEFAE0;fontFamily=Lucida Console;rounded=1;" vertex="1" parent="152">
                    <mxGeometry y="114" width="180" height="26" as="geometry"/>
                </mxCell>
            </root>
        </mxGraphModel>
    </diagram>
</mxfile>